#N canvas 1279 49 1279 1460 12;
#X floatatom 39 128 5 0 0 0 - - - 0;
#X obj 39 157 osc~;
#X obj 39 217 *~;
#X obj 43 64 hsl 170 20 0 2000 0 0 empty empty CarrierFrequency -2 -10 0 12 #fcfcfc #000000 #000000 0 1;
#X obj 40 97 * 1.02;
#X floatatom 113 174 5 0 0 3 ModAmount - - 8;
#X obj 39 265 +~;
#X floatatom 220 134 5 0 0 0 - - - 0;
#X obj 39 300 osc~;
#X obj 46 375 *~;
#X floatatom 97 348 5 0 1 0 - - - 0;
#X obj 38 431 dac~;
#X connect 0 0 1 0;
#X connect 1 0 2 0;
#X connect 2 0 6 0;
#X connect 3 0 4 0;
#X connect 3 0 7 0;
#X connect 4 0 0 0;
#X connect 5 0 2 1;
#X connect 6 0 8 0;
#X connect 7 0 6 1;
#X connect 8 0 9 0;
#X connect 9 0 11 0;
#X connect 9 0 11 1;
#X connect 10 0 9 1;
