#N canvas 0 49 1279 1460 12;
#X floatatom 100 253 5 0 0 0 - - - 0;
#X obj 103 233 hsl 170 20 0 2000 0 0 empty empty FQ -2 -10 0 12 #fcfcfc #000000 #000000 0 1;
#X obj 103 818 dac~;
#X obj 295 353 vline~;
#X obj 99 510 *~;
#X obj 103 774 schroederreverb;
#X floatatom 154 747 5 1 2000 0 - - - 0;
#X obj 157 727 hsl 170 20 1 2000 0 0 empty empty Reverb -2 -10 0 12 #fcfcfc #000000 #000000 0 1;
#X obj 295 233 bng 20 250 50 0 empty empty Tap 0 -10 0 12 #fcfcfc #000000 #000000;
#X obj 37 303 phasor~;
#X obj 37 333 -~ 0.5;
#X obj 37 363 abs~;
#X obj 37 388 *~ 4;
#X obj 36 417 -~ 1;
#X obj 111 306 phasor~;
#X obj 111 336 -~ 0.5;
#X obj 111 366 abs~;
#X obj 111 391 *~ 4;
#X obj 110 420 -~ 1;
#X obj 111 279 * 4;
#X obj 110 444 *~ 0.7;
#X obj 195 306 phasor~;
#X obj 195 336 -~ 0.5;
#X obj 195 366 abs~;
#X obj 195 391 *~ 4;
#X obj 194 420 -~ 1;
#X obj 194 444 *~ 0.5;
#X msg 15 85 60;
#X msg 64 83 63;
#X msg 118 81 65;
#X msg 164 80 67;
#X msg 203 79 70;
#X msg 242 79 72;
#X obj 100 119 mtof;
#X obj 195 279 * 5;
#X obj 106 557 lop~;
#X obj 394 403 line;
#X floatatom 403 446 5 0 0 0 - - - 0;
#X floatatom 100 147 5 0 0 0 - - - 0;
#X obj 295 296 random 200;
#X obj 347 446 * 500;
#X msg 295 324 1 300 \, 0 \$1 300;
#X msg 394 374 0 \, 1 500 100;
#X floatatom 256 554 6 0 999 0 - - - 0;
#X text 280 566 read from delay line;
#X obj 132 677 delwrite~ delay1 1000;
#X text 325 521 <-- delay time (msec), f 11;
#X obj 107 642 +~;
#X obj 183 624 *~ 0.7;
#X obj 256 589 delread~ delay1 100;
#X msg 256 521 300;
#X obj 342 488 loadbang;
#X floatatom 72 4 5 0 0 0 FQManual - - 0;
#X obj 103 198 * 1;
#X msg 286 78 75;
#X msg 324 78 77;
#X msg 361 78 79;
#X msg 397 78 82;
#X msg 431 77 84;
#X obj 147 22 sel 0 1 2 3 4 5 6 7 8 9 10;
#X connect 0 0 9 0;
#X connect 0 0 19 0;
#X connect 0 0 34 0;
#X connect 1 0 0 0;
#X connect 3 0 4 1;
#X connect 4 0 35 0;
#X connect 5 0 2 0;
#X connect 5 1 2 1;
#X connect 6 0 5 1;
#X connect 7 0 6 0;
#X connect 8 0 42 0;
#X connect 8 0 39 0;
#X connect 9 0 10 0;
#X connect 10 0 11 0;
#X connect 11 0 12 0;
#X connect 12 0 13 0;
#X connect 13 0 4 0;
#X connect 14 0 15 0;
#X connect 15 0 16 0;
#X connect 16 0 17 0;
#X connect 17 0 18 0;
#X connect 18 0 20 0;
#X connect 19 0 14 0;
#X connect 20 0 4 0;
#X connect 21 0 22 0;
#X connect 22 0 23 0;
#X connect 23 0 24 0;
#X connect 24 0 25 0;
#X connect 25 0 26 0;
#X connect 26 0 4 0;
#X connect 27 0 33 0;
#X connect 28 0 33 0;
#X connect 29 0 33 0;
#X connect 30 0 33 0;
#X connect 31 0 33 0;
#X connect 32 0 33 0;
#X connect 33 0 38 0;
#X connect 34 0 21 0;
#X connect 35 0 47 0;
#X connect 36 0 37 0;
#X connect 36 0 40 0;
#X connect 38 0 53 0;
#X connect 39 0 41 0;
#X connect 40 0 35 1;
#X connect 41 0 3 0;
#X connect 42 0 36 0;
#X connect 43 0 49 0;
#X connect 47 0 5 0;
#X connect 47 0 45 0;
#X connect 48 0 47 1;
#X connect 49 0 48 0;
#X connect 50 0 43 0;
#X connect 51 0 50 0;
#X connect 52 0 59 0;
#X connect 53 0 1 0;
#X connect 54 0 33 0;
#X connect 55 0 33 0;
#X connect 56 0 33 0;
#X connect 57 0 33 0;
#X connect 58 0 33 0;
#X connect 59 0 27 0;
#X connect 59 1 28 0;
#X connect 59 2 29 0;
#X connect 59 3 30 0;
#X connect 59 4 31 0;
#X connect 59 5 32 0;
#X connect 59 6 54 0;
#X connect 59 7 55 0;
#X connect 59 8 56 0;
#X connect 59 9 57 0;
#X connect 59 10 58 0;
